<svg clip-rule="evenodd" fill-rule="evenodd" stroke-linecap="round" stroke-linejoin="round" viewBox="0 0 500 500" xmlns="http://www.w3.org/2000/svg"><g fill="none" transform="scale(.892857 .847458)"><path d="m0 0h560v590h-560z"/><path d="m12 6.042c-1.648-1.478-3.786-2.295-6-2.292-1.052 0-2.062.18-3 .512v14.25c.964-.34 1.978-.513 3-.512 2.305 0 4.408.867 6 2.292m0-14.25c1.648-1.478 3.786-2.295 6-2.292 1.052 0 2.062.18 3 .512v14.25c-.964-.34-1.978-.513-3-.512-2.214-.003-4.352.814-6 2.292m0-14.25v14.25" stroke="#fff" stroke-width="1.5" transform="matrix(17.1114 0 0 18.0281 74.6627 85.7947)"/></g></svg>